<mxfile host="65bd71144e">
    <diagram id="-uZ82SuPbXST7aUgOJ0K" name="PÃ¡gina-1">
        <mxGraphModel dx="816" dy="224" grid="1" gridSize="10" guides="1" tooltips="1" connect="1" arrows="1" fold="1" page="1" pageScale="1" pageWidth="850" pageHeight="1100" math="0" shadow="0">
            <root>
                <mxCell id="0"/>
                <mxCell id="1" parent="0"/>
                <mxCell id="8" value="" style="edgeStyle=none;html=1;" edge="1" parent="1" source="2" target="7">
                    <mxGeometry relative="1" as="geometry"/>
                </mxCell>
                <mxCell id="2" value="INICIO" style="ellipse;whiteSpace=wrap;html=1;fillColor=#FF33FF;" vertex="1" parent="1">
                    <mxGeometry x="230" y="20" width="120" height="80" as="geometry"/>
                </mxCell>
                <mxCell id="10" value="" style="edgeStyle=none;html=1;" edge="1" parent="1" source="7" target="9">
                    <mxGeometry relative="1" as="geometry"/>
                </mxCell>
                <mxCell id="7" value="n" style="shape=parallelogram;perimeter=parallelogramPerimeter;whiteSpace=wrap;html=1;fixedSize=1;fillColor=#7F00FF;" vertex="1" parent="1">
                    <mxGeometry x="230" y="190" width="120" height="60" as="geometry"/>
                </mxCell>
                <mxCell id="12" value="" style="edgeStyle=none;html=1;" edge="1" parent="1" source="9" target="11">
                    <mxGeometry relative="1" as="geometry"/>
                </mxCell>
                <mxCell id="9" value="&#10;&lt;div style=&quot;color: rgb(212, 212, 212); background-color: rgb(30, 30, 30); font-family: Consolas, &amp;quot;Courier New&amp;quot;, monospace; font-weight: normal; font-size: 14px; line-height: 19px;&quot;&gt;&lt;div&gt;&lt;span style=&quot;color: #9cdcfe;&quot;&gt;m&lt;/span&gt;&lt;span style=&quot;color: #d4d4d4;&quot;&gt;=&lt;/span&gt;&lt;span style=&quot;color: #9cdcfe;&quot;&gt;n&lt;/span&gt;&lt;span style=&quot;color: #d4d4d4;&quot;&gt;//&lt;/span&gt;&lt;span style=&quot;color: #b5cea8;&quot;&gt;100&lt;/span&gt;&lt;/div&gt;&lt;div&gt;&lt;span style=&quot;color: #9cdcfe;&quot;&gt;s&lt;/span&gt;&lt;span style=&quot;color: #d4d4d4;&quot;&gt;=&lt;/span&gt;&lt;span style=&quot;color: #9cdcfe;&quot;&gt;n&lt;/span&gt;&lt;span style=&quot;color: #d4d4d4;&quot;&gt;%&lt;/span&gt;&lt;span style=&quot;color: #b5cea8;&quot;&gt;100&lt;/span&gt;&lt;/div&gt;&lt;div&gt;&lt;span style=&quot;color: #9cdcfe;&quot;&gt;o&lt;/span&gt;&lt;span style=&quot;color: #d4d4d4;&quot;&gt;=&lt;/span&gt;&lt;span style=&quot;color: #9cdcfe;&quot;&gt;s&lt;/span&gt;&lt;span style=&quot;color: #d4d4d4;&quot;&gt;//&lt;/span&gt;&lt;span style=&quot;color: #b5cea8;&quot;&gt;10&lt;/span&gt;&lt;/div&gt;&lt;div&gt;&lt;span style=&quot;color: #9cdcfe;&quot;&gt;p&lt;/span&gt;&lt;span style=&quot;color: #d4d4d4;&quot;&gt;=&lt;/span&gt;&lt;span style=&quot;color: #9cdcfe;&quot;&gt;s&lt;/span&gt;&lt;span style=&quot;color: #d4d4d4;&quot;&gt;%&lt;/span&gt;&lt;span style=&quot;color: #b5cea8;&quot;&gt;10&lt;/span&gt;&lt;/div&gt;&lt;div&gt;&lt;span style=&quot;color: #9cdcfe;&quot;&gt;q&lt;/span&gt;&lt;span style=&quot;color: #d4d4d4;&quot;&gt;= &lt;/span&gt;&lt;span style=&quot;color: #9cdcfe;&quot;&gt;m&lt;/span&gt;&lt;span style=&quot;color: #d4d4d4;&quot;&gt;+&lt;/span&gt;&lt;span style=&quot;color: #9cdcfe;&quot;&gt;o&lt;/span&gt;&lt;span style=&quot;color: #d4d4d4;&quot;&gt;*&lt;/span&gt;&lt;span style=&quot;color: #b5cea8;&quot;&gt;10&lt;/span&gt;&lt;span style=&quot;color: #d4d4d4;&quot;&gt;+&lt;/span&gt;&lt;span style=&quot;color: #9cdcfe;&quot;&gt;p&lt;/span&gt;&lt;span style=&quot;color: #d4d4d4;&quot;&gt;*&lt;/span&gt;&lt;span style=&quot;color: #b5cea8;&quot;&gt;100&lt;/span&gt;&lt;/div&gt;&lt;/div&gt;&#10;&#10;" style="whiteSpace=wrap;html=1;fillColor=#FF33FF;" vertex="1" parent="1">
                    <mxGeometry x="230" y="290" width="130" height="130" as="geometry"/>
                </mxCell>
                <mxCell id="14" value="" style="edgeStyle=none;html=1;" edge="1" parent="1" source="11" target="13">
                    <mxGeometry relative="1" as="geometry"/>
                </mxCell>
                <mxCell id="11" value="q=ni" style="shape=document;whiteSpace=wrap;html=1;boundedLbl=1;fillColor=#9933FF;" vertex="1" parent="1">
                    <mxGeometry x="230" y="463" width="120" height="80" as="geometry"/>
                </mxCell>
                <mxCell id="13" value="FIN" style="ellipse;whiteSpace=wrap;html=1;fillColor=#FF33FF;" vertex="1" parent="1">
                    <mxGeometry x="250" y="620" width="100" height="80" as="geometry"/>
                </mxCell>
            </root>
        </mxGraphModel>
    </diagram>
</mxfile>